# xmcd CD database file
#
# Track frame offsets:
#	150
#	48543
#	77900
#	99196
#	126728
#	160718
#	195375
#	231216
#	265057
#	301815
#	336933
#
# Disc length: 4723 seconds
#
# Revision: 0
# Processed by: cddbd v1.5.2PL0 Copyright (c) Steve Scherf et al.
# Submitted via: CDex 1.51
#
DISCID=8e12710b
DTITLE=Wynton Kelly - NineClassic Albums - CD 3
DYEAR=2015
DGENRE=Jazz
TTITLE0=Kelly Blue
TTITLE1=Softly, As In A Morning Sunrise
TTITLE2=On Green Dolphin Street
TTITLE3=Willow Weep For Me
TTITLE4=Keep it Moving
TTITLE5=Old Clothes
TTITLE6=Wrinkles
TTITLE7=Mama G
TTITLE8=June Night
TTITLE9=What I Know
TTITLE10=Sydney
EXTD=YEAR: 2015
EXTT0=
EXTT1=
EXTT2=
EXTT3=
EXTT4=
EXTT5=
EXTT6=
EXTT7=
EXTT8=
EXTT9=
EXTT10=
PLAYORDER=
